<svg width="24" height="22" viewBox="0 0 24 22" fill="none" xmlns="http://www.w3.org/2000/svg">
<path d="M17.3 2.05005C20.15 2.05005 22.5 4.65005 22.5 7.80005C22.5 11.2001 19.55 13.3 16.75 15.8C13.95 18.3001 12.5 19.6501 12 19.9501C11.45 19.6001 9.65 17.9501 7.25 15.8C4.4 13.3 1.5 11.2001 1.5 7.80005C1.5 4.65005 3.85 2.05005 6.7 2.05005C8.8 2.05005 9.95 3.05005 10.75 4.20005C11.7 5.50005 11.85 6.15005 12 6.15005C12.15 6.15005 12.3 5.50005 13.25 4.20005C14.05 3.05005 15.2 2.05005 17.3 2.05005ZM17.3 0.550049C15.05 0.550049 13.35 1.45005 12 3.35005C10.65 1.50005 8.95 0.600049 6.7 0.600049C3 0.550049 0 3.80005 0 7.80005C0 11.4501 2.7 13.8 5.3 16.05C5.6 16.3 5.95 16.6001 6.25 16.9001L7.4 17.9001C9.6 19.8501 10.7 20.8501 11.2 21.1501C11.45 21.3001 11.75 21.4001 12 21.4001C12.3 21.4001 12.55 21.3001 12.8 21.1501C13.3 20.8501 14.2 20.0501 16.7 17.7501L17.7 16.8501C18.05 16.5501 18.35 16.2501 18.7 16.0001C21.35 13.8 24 11.5001 24 7.80005C24 3.80005 21 0.550049 17.3 0.550049Z" fill="white"/>
</svg>
