<svg width="22" height="23" viewBox="0 0 22 23" fill="none" xmlns="http://www.w3.org/2000/svg">
<path d="M20.3042 22.0229H13.2917C12.925 22.0229 12.6042 21.7021 12.6042 21.3354V15.6979C12.6042 14.5063 11.6875 13.5896 10.4958 13.5896C9.30417 13.5896 8.3875 14.5063 8.3875 15.6979V21.3354C8.3875 21.7021 8.06667 22.0229 7.7 22.0229H0.6875C0.320833 22.0229 0 21.7021 0 21.3354V10.5646C0 10.3812 0.0916667 10.1979 0.183333 10.0604L10.0375 0.20625C10.3125 -0.06875 10.725 -0.06875 11 0.20625L20.8542 10.0604C21.0375 10.2437 21.1292 10.5646 20.9917 10.7937C20.9917 10.8396 20.9458 10.8396 20.9458 10.8854V21.3354C20.9917 21.7021 20.6708 22.0229 20.3042 22.0229ZM13.9792 20.6479H19.6167V10.7479L10.5417 1.67292L1.375 10.8396V20.6479H7.0125V15.6979C7.0125 13.7271 8.525 12.2146 10.4958 12.2146C12.4667 12.2146 13.9792 13.7271 13.9792 15.6979V20.6479Z" fill="#fff"/>
</svg>