<svg width="12" height="12" viewBox="0 0 12 12" fill="none" xmlns="http://www.w3.org/2000/svg">
<path fill-rule="evenodd" clip-rule="evenodd" d="M11.6 0H0.4C0.186667 0 0 0.186667 0 0.4V11.6C0 11.8133 0.186667 12 0.4 12H11.6C11.8133 12 12 11.8133 12 11.6V0.4C12 0.186667 11.8133 0 11.6 0ZM0.8 0.8H3.73333V3.73333H0.8V0.8ZM0.8 4.53333H3.73333V7.46667H0.8V4.53333ZM3.73333 11.2H0.8V8.26667H3.73333V11.2ZM7.46667 11.2H4.53333V8.26667H7.46667V11.2ZM7.46667 7.46667H4.53333V4.53333H7.46667V7.46667ZM7.46667 3.73333H4.53333V0.8H7.46667V3.73333ZM11.2 11.2H8.26667V8.26667H11.2V11.2ZM11.2 7.46667H8.26667V4.53333H11.2V7.46667ZM11.2 3.73333H8.26667V0.8H11.2V3.73333Z" fill="white"/>
</svg>