<svg width="10" height="12" viewBox="0 0 10 12" fill="none" xmlns="http://www.w3.org/2000/svg">
<path d="M9.64286 11.9889C9.54762 11.9889 9.45238 11.9389 9.38095 11.889L5 7.24329L0.619048 11.889C0.523809 11.9889 0.357143 12.0389 0.238095 11.9639C0.0952381 11.914 0 11.7641 0 11.6142V0.374653C0 0.174838 0.166667 0 0.357143 0H9.64286C9.83333 0 10 0.174838 10 0.374653V11.6142C10 11.7641 9.90476 11.914 9.78571 11.9639C9.7381 11.9889 9.69048 11.9889 9.64286 11.9889ZM5 6.49399C5.19048 6.49399 5.38095 6.56892 5.52381 6.71878L9.28571 10.7151V0.749306H0.714286V10.7151L4.47619 6.71878C4.61905 6.56892 4.80952 6.49399 5 6.49399Z" fill="#8E8E8E"/>
</svg>